<svg width="24" height="24" viewBox="0 0 24 24" fill="none" xmlns="http://www.w3.org/2000/svg">
<g clip-path="url(#clip0_2971_985)">
<path d="M3.99984 6.41408L0.756836 3.17208L2.17184 1.75708L5.41384 5.00008H20.6558C20.8117 5.00007 20.9654 5.03649 21.1047 5.10645C21.244 5.1764 21.365 5.27794 21.4581 5.40298C21.5511 5.52801 21.6137 5.67306 21.6407 5.82657C21.6678 5.98007 21.6586 6.13777 21.6138 6.28708L19.2138 14.2871C19.1521 14.4932 19.0255 14.6738 18.853 14.8023C18.6804 14.9307 18.471 15.0001 18.2558 15.0001H5.99984V17.0001H16.9998V19.0001H4.99984C4.73462 19.0001 4.48027 18.8947 4.29273 18.7072C4.10519 18.5197 3.99984 18.2653 3.99984 18.0001V6.41408ZM5.99984 7.00008V13.0001H17.5118L19.3118 7.00008H5.99984ZM5.49984 23.0001C5.10201 23.0001 4.72048 22.842 4.43918 22.5607C4.15787 22.2794 3.99984 21.8979 3.99984 21.5001C3.99984 21.1023 4.15787 20.7207 4.43918 20.4394C4.72048 20.1581 5.10201 20.0001 5.49984 20.0001C5.89766 20.0001 6.27919 20.1581 6.5605 20.4394C6.8418 20.7207 6.99984 21.1023 6.99984 21.5001C6.99984 21.8979 6.8418 22.2794 6.5605 22.5607C6.27919 22.842 5.89766 23.0001 5.49984 23.0001ZM17.4998 23.0001C17.102 23.0001 16.7205 22.842 16.4392 22.5607C16.1579 22.2794 15.9998 21.8979 15.9998 21.5001C15.9998 21.1023 16.1579 20.7207 16.4392 20.4394C16.7205 20.1581 17.102 20.0001 17.4998 20.0001C17.8977 20.0001 18.2792 20.1581 18.5605 20.4394C18.8418 20.7207 18.9998 21.1023 18.9998 21.5001C18.9998 21.8979 18.8418 22.2794 18.5605 22.5607C18.2792 22.842 17.8977 23.0001 17.4998 23.0001Z" fill="#0F172A"/>
</g>
<defs>
<clipPath id="clip0_2971_985">
<rect width="24" height="24" fill="white"/>
</clipPath>
</defs>
</svg>
