<svg width="24" height="24" viewBox="0 0 24 24" fill="none" xmlns="http://www.w3.org/2000/svg">
<g clip-path="url(#clip0_682_1420)">
<path d="M12.1676 5.40156C14.3208 3.46831 17.6483 3.53248 19.7228 5.61057C21.7963 7.68957 21.8678 11.0006 19.9391 13.1602L12.1658 20.9446L4.39426 13.1602C2.46559 11.0006 2.53801 7.68407 4.61059 5.61057C6.68684 3.53523 10.0079 3.46556 12.1676 5.40156ZM18.4248 6.90582C17.0498 5.52898 14.8314 5.47307 13.3923 6.76557L12.1685 7.86373L10.9438 6.76648C9.50009 5.47215 7.28634 5.52898 5.90767 6.90765C4.54184 8.27348 4.47309 10.4597 5.73167 11.9044L12.1667 18.3495L18.6017 11.9053C19.8612 10.4597 19.7924 8.27623 18.4248 6.90582Z" fill="#0F172A"/>
</g>
<defs>
<clipPath id="clip0_682_1420">
<rect width="24" height="24" fill="white"/>
</clipPath>
</defs>
</svg>
