<svg width="20" height="20" viewBox="0 0 20 20" fill="none" xmlns="http://www.w3.org/2000/svg">
<path d="M9.9996 8.20371C8.56601 8.20371 7.39609 9.37363 7.39609 10.8072C7.39609 12.2408 8.56601 13.4107 9.9996 13.4107C11.4332 13.4107 12.6031 12.2408 12.6031 10.8072C12.6031 9.37363 11.4332 8.20371 9.9996 8.20371ZM17.8082 10.8072C17.8082 9.7291 17.818 8.66074 17.7574 7.58457C17.6969 6.33457 17.4117 5.22519 16.4977 4.31113C15.5816 3.39511 14.4742 3.11191 13.2242 3.05136C12.1461 2.99082 11.0777 3.00058 10.0016 3.00058C8.92343 3.00058 7.85507 2.99082 6.7789 3.05136C5.5289 3.11191 4.41953 3.39707 3.50546 4.31113C2.58945 5.22714 2.30624 6.33457 2.2457 7.58457C2.18515 8.66269 2.19492 9.73105 2.19492 10.8072C2.19492 11.8834 2.18515 12.9537 2.2457 14.0299C2.30624 15.2799 2.5914 16.3893 3.50546 17.3033C4.42148 18.2193 5.5289 18.5025 6.7789 18.5631C7.85703 18.6236 8.92539 18.6139 10.0016 18.6139C11.0797 18.6139 12.148 18.6236 13.2242 18.5631C14.4742 18.5025 15.5836 18.2174 16.4977 17.3033C17.4137 16.3873 17.6969 15.2799 17.7574 14.0299C17.8199 12.9537 17.8082 11.8853 17.8082 10.8072ZM9.9996 14.8131C7.78281 14.8131 5.99375 13.024 5.99375 10.8072C5.99375 8.59043 7.78281 6.80136 9.9996 6.80136C12.2164 6.80136 14.0055 8.59043 14.0055 10.8072C14.0055 13.024 12.2164 14.8131 9.9996 14.8131ZM14.1695 7.57285C13.6519 7.57285 13.234 7.15488 13.234 6.6373C13.234 6.11972 13.6519 5.70175 14.1695 5.70175C14.6871 5.70175 15.1051 6.11972 15.1051 6.6373C15.1052 6.7602 15.0811 6.88193 15.0342 6.9955C14.9872 7.10908 14.9183 7.21227 14.8314 7.29918C14.7445 7.38608 14.6413 7.45499 14.5277 7.50195C14.4142 7.54891 14.2924 7.573 14.1695 7.57285Z" fill="white"/>
</svg>
