<svg width="24" height="24" viewBox="0 0 24 24" fill="none" xmlns="http://www.w3.org/2000/svg">
<path d="M7.37546 12.6357L14.4113 5.83978C14.4867 5.76696 15.0898 5.18446 16.0447 4.86894C17.3765 4.45633 18.7334 4.79612 19.8139 5.83978C20.9195 6.88343 21.2462 8.1698 20.819 9.45616C20.5175 10.3785 19.8893 11.0095 19.8139 11.0823L12.2503 18.3879C10.9437 19.65 7.677 21.2761 4.66162 18.3879C1.67137 15.4996 3.38008 12.3201 4.66162 11.0823L12.778 3.21851C13.0795 2.92726 13.557 2.92726 13.8585 3.21851C14.1601 3.50976 14.1601 3.97091 13.8585 4.26216L5.76726 12.126C5.64162 12.2231 3.10367 14.7715 5.76726 17.3442C8.35546 19.8442 10.8934 17.6112 11.1698 17.3442L18.7334 10.0144C18.7334 10.0144 19.1606 9.60179 19.3616 9.01928C19.6129 8.24261 19.437 7.56302 18.7334 6.88343C17.2257 5.42717 15.7683 6.64072 15.4918 6.88343L8.45597 13.655C8.20469 13.8978 8.02879 14.3104 8.45597 14.723C8.88315 15.1356 9.2852 14.9414 9.53648 14.723L14.4113 10.0144C14.7129 9.74741 15.2154 9.74741 15.4918 10.0144C15.7934 10.3056 15.7934 10.7911 15.4918 11.0823L10.617 15.7666C9.93853 16.3977 8.55648 16.9074 7.37546 15.7666C6.16931 14.6259 6.697 13.2667 7.37546 12.6357Z" fill="black"/>
</svg>
