<svg width="325" height="114" viewBox="0 0 325 114" fill="none" xmlns="http://www.w3.org/2000/svg">
<path d="M3.22094 58.88V53.72L23.3809 24.8H31.6609V52.94H37.2409V58.88H31.6609V68H24.9409V58.88H3.22094ZM25.2409 31.76L11.0809 52.94H25.2409V31.76ZM46.5686 68.42C45.3286 68.42 44.2886 68 43.4486 67.16C42.6086 66.32 42.1886 65.28 42.1886 64.04C42.1886 62.8 42.6086 61.76 43.4486 60.92C44.2886 60.08 45.3286 59.66 46.5686 59.66C47.7686 59.66 48.7886 60.08 49.6286 60.92C50.4686 61.76 50.8886 62.8 50.8886 64.04C50.8886 65.28 50.4686 66.32 49.6286 67.16C48.7886 68 47.7686 68.42 46.5686 68.42ZM85.5813 30.14H65.4813V42.08C66.3213 40.96 67.5613 40.02 69.2012 39.26C70.8813 38.5 72.6613 38.12 74.5413 38.12C77.9013 38.12 80.6213 38.84 82.7013 40.28C84.8213 41.72 86.3213 43.54 87.2013 45.74C88.1213 47.94 88.5813 50.26 88.5813 52.7C88.5813 55.66 88.0013 58.3 86.8412 60.62C85.7213 62.9 84.0213 64.7 81.7413 66.02C79.5013 67.34 76.7413 68 73.4613 68C69.1013 68 65.6013 66.92 62.9613 64.76C60.3213 62.6 58.7413 59.74 58.2213 56.18H64.8813C65.3213 58.06 66.3013 59.56 67.8213 60.68C69.3413 61.76 71.2413 62.3 73.5213 62.3C76.3613 62.3 78.4813 61.44 79.8813 59.72C81.3213 58 82.0413 55.72 82.0413 52.88C82.0413 50 81.3213 47.8 79.8813 46.28C78.4413 44.72 76.3213 43.94 73.5213 43.94C71.5613 43.94 69.9013 44.44 68.5413 45.44C67.2213 46.4 66.2613 47.72 65.6613 49.4H59.1813V24.14H85.5813V30.14ZM99.2216 52.896L94.8696 70.8H93.0776L97.4136 52.896H99.2216ZM108.8 57.904H103.44V61.088C103.664 60.7893 103.995 60.5387 104.432 60.336C104.88 60.1333 105.355 60.032 105.856 60.032C106.752 60.032 107.478 60.224 108.032 60.608C108.598 60.992 108.998 61.4773 109.232 62.064C109.478 62.6507 109.6 63.2693 109.6 63.92C109.6 64.7093 109.446 65.4133 109.136 66.032C108.838 66.64 108.384 67.12 107.776 67.472C107.179 67.824 106.443 68 105.568 68C104.406 68 103.472 67.712 102.768 67.136C102.064 66.56 101.643 65.7973 101.504 64.848H103.28C103.398 65.3493 103.659 65.7493 104.064 66.048C104.47 66.336 104.976 66.48 105.584 66.48C106.342 66.48 106.907 66.2507 107.28 65.792C107.664 65.3333 107.856 64.7253 107.856 63.968C107.856 63.2 107.664 62.6133 107.28 62.208C106.896 61.792 106.331 61.584 105.584 61.584C105.062 61.584 104.619 61.7173 104.256 61.984C103.904 62.24 103.648 62.592 103.488 63.04H101.76V56.304H108.8V57.904Z" fill="#0F172A"/>
<path d="M7.54894 96.927C7.9408 95.721 8.13673 95.118 8.5 95.118C8.86327 95.118 9.0592 95.721 9.45106 96.9271L10.1839 99.1824C10.2922 99.5157 10.3463 99.6824 10.4777 99.7779C10.6092 99.8734 10.7844 99.8734 11.1349 99.8734L13.5063 99.8734C14.7744 99.8734 15.4084 99.8734 15.5207 100.219C15.6329 100.564 15.12 100.937 14.0941 101.682L12.1756 103.076C11.892 103.282 11.7503 103.385 11.7001 103.54C11.6499 103.694 11.704 103.861 11.8123 104.194L12.5451 106.45C12.937 107.656 13.1329 108.259 12.839 108.472C12.5451 108.686 12.0322 108.313 11.0063 107.568L9.08778 106.174C8.80423 105.968 8.66246 105.865 8.5 105.865C8.33754 105.865 8.19577 105.968 7.91221 106.174L5.99372 107.568C4.96783 108.313 4.45488 108.686 4.16099 108.472C3.8671 108.259 4.06302 107.656 4.45488 106.45L5.18768 104.194C5.29599 103.861 5.35014 103.694 5.29994 103.54C5.24973 103.385 5.10796 103.282 4.82441 103.076L2.90592 101.682C1.88002 100.937 1.36708 100.564 1.47933 100.219C1.59159 99.8734 2.22563 99.8734 3.4937 99.8734L5.86509 99.8734C6.21558 99.8734 6.39082 99.8734 6.52225 99.7779C6.65369 99.6824 6.70784 99.5157 6.81614 99.1824L7.54894 96.927Z" fill="#FFB800"/>
<path d="M29.5489 96.927C29.9408 95.721 30.1367 95.118 30.5 95.118C30.8633 95.118 31.0592 95.721 31.4511 96.9271L32.1839 99.1824C32.2922 99.5157 32.3463 99.6824 32.4777 99.7779C32.6092 99.8734 32.7844 99.8734 33.1349 99.8734L35.5063 99.8734C36.7744 99.8734 37.4084 99.8734 37.5207 100.219C37.6329 100.564 37.12 100.937 36.0941 101.682L34.1756 103.076C33.892 103.282 33.7503 103.385 33.7001 103.54C33.6499 103.694 33.704 103.861 33.8123 104.194L34.5451 106.45C34.937 107.656 35.1329 108.259 34.839 108.472C34.5451 108.686 34.0322 108.313 33.0063 107.568L31.0878 106.174C30.8042 105.968 30.6625 105.865 30.5 105.865C30.3375 105.865 30.1958 105.968 29.9122 106.174L27.9937 107.568C26.9678 108.313 26.4549 108.686 26.161 108.472C25.8671 108.259 26.063 107.656 26.4549 106.45L27.1877 104.194C27.296 103.861 27.3501 103.694 27.2999 103.54C27.2497 103.385 27.108 103.282 26.8244 103.076L24.9059 101.682C23.88 100.937 23.3671 100.564 23.4793 100.219C23.5916 99.8734 24.2256 99.8734 25.4937 99.8734L27.8651 99.8734C28.2156 99.8734 28.3908 99.8734 28.5223 99.7779C28.6537 99.6824 28.7078 99.5157 28.8161 99.1824L29.5489 96.927Z" fill="#FFB800"/>
<path d="M51.5489 96.927C51.9408 95.721 52.1367 95.118 52.5 95.118C52.8633 95.118 53.0592 95.721 53.4511 96.9271L54.1839 99.1824C54.2922 99.5157 54.3463 99.6824 54.4777 99.7779C54.6092 99.8734 54.7844 99.8734 55.1349 99.8734L57.5063 99.8734C58.7744 99.8734 59.4084 99.8734 59.5207 100.219C59.6329 100.564 59.12 100.937 58.0941 101.682L56.1756 103.076C55.892 103.282 55.7503 103.385 55.7001 103.54C55.6499 103.694 55.704 103.861 55.8123 104.194L56.5451 106.45C56.937 107.656 57.1329 108.259 56.839 108.472C56.5451 108.686 56.0322 108.313 55.0063 107.568L53.0878 106.174C52.8042 105.968 52.6625 105.865 52.5 105.865C52.3375 105.865 52.1958 105.968 51.9122 106.174L49.9937 107.568C48.9678 108.313 48.4549 108.686 48.161 108.472C47.8671 108.259 48.063 107.656 48.4549 106.45L49.1877 104.194C49.296 103.861 49.3501 103.694 49.2999 103.54C49.2497 103.385 49.108 103.282 48.8244 103.076L46.9059 101.682C45.88 100.937 45.3671 100.564 45.4793 100.219C45.5916 99.8734 46.2256 99.8734 47.4937 99.8734L49.8651 99.8734C50.2156 99.8734 50.3908 99.8734 50.5223 99.7779C50.6537 99.6824 50.7078 99.5157 50.8161 99.1824L51.5489 96.927Z" fill="#FFB800"/>
<path d="M73.5489 96.927C73.9408 95.721 74.1367 95.118 74.5 95.118C74.8633 95.118 75.0592 95.721 75.4511 96.9271L76.1839 99.1824C76.2922 99.5157 76.3463 99.6824 76.4777 99.7779C76.6092 99.8734 76.7844 99.8734 77.1349 99.8734L79.5063 99.8734C80.7744 99.8734 81.4084 99.8734 81.5207 100.219C81.6329 100.564 81.12 100.937 80.0941 101.682L78.1756 103.076C77.892 103.282 77.7503 103.385 77.7001 103.54C77.6499 103.694 77.704 103.861 77.8123 104.194L78.5451 106.45C78.937 107.656 79.1329 108.259 78.839 108.472C78.5451 108.686 78.0322 108.313 77.0063 107.568L75.0878 106.174C74.8042 105.968 74.6625 105.865 74.5 105.865C74.3375 105.865 74.1958 105.968 73.9122 106.174L71.9937 107.568C70.9678 108.313 70.4549 108.686 70.161 108.472C69.8671 108.259 70.063 107.656 70.4549 106.45L71.1877 104.194C71.296 103.861 71.3501 103.694 71.2999 103.54C71.2497 103.385 71.108 103.282 70.8244 103.076L68.9059 101.682C67.88 100.937 67.3671 100.564 67.4793 100.219C67.5916 99.8734 68.2256 99.8734 69.4937 99.8734L71.8651 99.8734C72.2156 99.8734 72.3908 99.8734 72.5223 99.7779C72.6537 99.6824 72.7078 99.5157 72.8161 99.1824L73.5489 96.927Z" fill="#FFB800"/>
<path d="M95.5489 96.927C95.9408 95.721 96.1367 95.118 96.5 95.118C96.8633 95.118 97.0592 95.721 97.4511 96.9271L98.1839 99.1824C98.2922 99.5157 98.3463 99.6824 98.4777 99.7779C98.6092 99.8734 98.7844 99.8734 99.1349 99.8734L101.506 99.8734C102.774 99.8734 103.408 99.8734 103.521 100.219C103.633 100.564 103.12 100.937 102.094 101.682L100.176 103.076C99.892 103.282 99.7503 103.385 99.7001 103.54C99.6499 103.694 99.704 103.861 99.8123 104.194L100.545 106.45C100.937 107.656 101.133 108.259 100.839 108.472C100.545 108.686 100.032 108.313 99.0063 107.568L97.0878 106.174C96.8042 105.968 96.6625 105.865 96.5 105.865C96.3375 105.865 96.1958 105.968 95.9122 106.174L93.9937 107.568C92.9678 108.313 92.4549 108.686 92.161 108.472C91.8671 108.259 92.063 107.656 92.4549 106.45L93.1877 104.194C93.296 103.861 93.3501 103.694 93.2999 103.54C93.2497 103.385 93.108 103.282 92.8244 103.076L90.9059 101.682C89.88 100.937 89.3671 100.564 89.4793 100.219C89.5916 99.8734 90.2256 99.8734 91.4937 99.8734L93.8651 99.8734C94.2156 99.8734 94.3908 99.8734 94.5223 99.7779C94.6537 99.6824 94.7078 99.5157 94.8161 99.1824L95.5489 96.927Z" fill="#FFB800"/>
<rect x="186" y="100" width="68" height="10" fill="#FF8C5A"/>
<path d="M171.54 101.5V100.252H174.036V109H172.656V101.5H171.54Z" fill="#0F172A"/>
<rect x="188" y="76" width="56.6667" height="10" fill="#FFB235"/>
<path d="M172.476 83.14C173.244 82.476 173.848 81.932 174.288 81.508C174.736 81.076 175.108 80.628 175.404 80.164C175.7 79.7 175.848 79.236 175.848 78.772C175.848 78.292 175.732 77.916 175.5 77.644C175.276 77.372 174.92 77.236 174.432 77.236C173.96 77.236 173.592 77.388 173.328 77.692C173.072 77.988 172.936 78.388 172.92 78.892H171.6C171.624 77.98 171.896 77.284 172.416 76.804C172.944 76.316 173.612 76.072 174.42 76.072C175.292 76.072 175.972 76.312 176.46 76.792C176.956 77.272 177.204 77.912 177.204 78.712C177.204 79.288 177.056 79.844 176.76 80.38C176.472 80.908 176.124 81.384 175.716 81.808C175.316 82.224 174.804 82.708 174.18 83.26L173.64 83.74H177.444V84.88H171.612V83.884L172.476 83.14Z" fill="#0F172A"/>
<rect x="189" y="52" width="78.5714" height="10" fill="#FFD935"/>
<path d="M171.696 54.412C171.744 53.668 172.028 53.088 172.548 52.672C173.076 52.256 173.748 52.048 174.564 52.048C175.124 52.048 175.608 52.148 176.016 52.348C176.424 52.548 176.732 52.82 176.94 53.164C177.148 53.508 177.252 53.896 177.252 54.328C177.252 54.824 177.12 55.248 176.856 55.6C176.592 55.952 176.276 56.188 175.908 56.308V56.356C176.38 56.5 176.748 56.764 177.012 57.148C177.276 57.524 177.408 58.008 177.408 58.6C177.408 59.072 177.3 59.492 177.084 59.86C176.868 60.228 176.548 60.52 176.124 60.736C175.7 60.944 175.192 61.048 174.6 61.048C173.736 61.048 173.024 60.828 172.464 60.388C171.912 59.94 171.616 59.3 171.576 58.468H172.896C172.928 58.892 173.092 59.24 173.388 59.512C173.684 59.776 174.084 59.908 174.588 59.908C175.076 59.908 175.452 59.776 175.716 59.512C175.98 59.24 176.112 58.892 176.112 58.468C176.112 57.908 175.932 57.512 175.572 57.28C175.22 57.04 174.676 56.92 173.94 56.92H173.628V55.792H173.952C174.6 55.784 175.092 55.676 175.428 55.468C175.772 55.26 175.944 54.932 175.944 54.484C175.944 54.1 175.82 53.796 175.572 53.572C175.324 53.34 174.972 53.224 174.516 53.224C174.068 53.224 173.72 53.34 173.472 53.572C173.224 53.796 173.076 54.076 173.028 54.412H171.696Z" fill="#0F172A"/>
<rect x="189" y="4" width="135.714" height="10" fill="#1AB065"/>
<path d="M177.36 5.428H173.34V7.816C173.508 7.592 173.756 7.404 174.084 7.252C174.42 7.1 174.776 7.024 175.152 7.024C175.824 7.024 176.368 7.168 176.784 7.456C177.208 7.744 177.508 8.108 177.684 8.548C177.868 8.988 177.96 9.452 177.96 9.94C177.96 10.532 177.844 11.06 177.612 11.524C177.388 11.98 177.048 12.34 176.592 12.604C176.144 12.868 175.592 13 174.936 13C174.064 13 173.364 12.784 172.836 12.352C172.308 11.92 171.992 11.348 171.888 10.636H173.22C173.308 11.012 173.504 11.312 173.808 11.536C174.112 11.752 174.492 11.86 174.948 11.86C175.516 11.86 175.94 11.688 176.22 11.344C176.508 11 176.652 10.544 176.652 9.976C176.652 9.4 176.508 8.96 176.22 8.656C175.932 8.344 175.508 8.188 174.948 8.188C174.556 8.188 174.224 8.288 173.952 8.488C173.688 8.68 173.496 8.944 173.376 9.28H172.08V4.228H177.36V5.428Z" fill="#0F172A"/>
<rect x="189" y="28" width="98" height="10" fill="#AED888"/>
<path d="M171.552 35.176V34.144L175.584 28.36H177.24V33.988H178.356V35.176H177.24V37H175.896V35.176H171.552ZM175.956 29.752L173.124 33.988H175.956V29.752Z" fill="#0F172A"/>
</svg>
