<svg width="20" height="20" viewBox="0 0 20 20" fill="none" xmlns="http://www.w3.org/2000/svg">
<g clip-path="url(#clip0_2971_986)">
<path d="M15.0271 13.8469L18.5963 17.4152L17.4171 18.5943L13.8488 15.0252C12.5211 16.0895 10.8696 16.6684 9.16797 16.666C5.02797 16.666 1.66797 13.306 1.66797 9.16602C1.66797 5.02602 5.02797 1.66602 9.16797 1.66602C13.308 1.66602 16.668 5.02602 16.668 9.16602C16.6704 10.8677 16.0915 12.5191 15.0271 13.8469ZM13.3555 13.2285C14.4131 12.1409 15.0037 10.683 15.0013 9.16602C15.0013 5.94268 12.3905 3.33268 9.16797 3.33268C5.94464 3.33268 3.33464 5.94268 3.33464 9.16602C3.33464 12.3885 5.94464 14.9993 9.16797 14.9993C10.685 15.0017 12.1429 14.4111 13.2305 13.3535L13.3555 13.2285V13.2285Z" fill="#0F172A"/>
</g>
<defs>
<clipPath id="clip0_2971_986">
<rect width="20" height="20" fill="white"/>
</clipPath>
</defs>
</svg>
