<svg width="16" height="14" viewBox="0 0 16 14" fill="none" xmlns="http://www.w3.org/2000/svg">
<path d="M7.08947 1.71931C7.48214 0.588922 7.67848 0.0237272 8.0341 0.0237271C8.38972 0.0237271 8.58606 0.588922 8.97873 1.71931L9.80224 4.08998C9.91497 4.41449 9.97134 4.57674 10.1015 4.66929C10.2316 4.76184 10.4033 4.76184 10.7469 4.76184H13.2621C14.5918 4.76184 15.2567 4.76184 15.3653 5.11482C15.4739 5.4678 14.924 5.84151 13.8241 6.58893L11.9068 7.89189C11.6019 8.0991 11.4494 8.20271 11.3961 8.36373C11.3428 8.52476 11.4033 8.69888 11.5242 9.04713L12.2833 11.2321C12.6926 12.4104 12.8972 12.9995 12.6106 13.2193C12.3241 13.439 11.8082 13.0885 10.7766 12.3874L8.59617 10.9056C8.324 10.7207 8.18791 10.6282 8.0341 10.6282C7.88028 10.6282 7.7442 10.7207 7.47203 10.9056L5.29162 12.3874C4.25996 13.0885 3.74414 13.439 3.45755 13.2193C3.17097 12.9995 3.37562 12.4104 3.78492 11.2321L4.54395 9.04713C4.66493 8.69888 4.72541 8.52476 4.67209 8.36373C4.61877 8.20271 4.46631 8.0991 4.16139 7.89189L2.24406 6.58893C1.14423 5.84151 0.594313 5.4678 0.702902 5.11482C0.81149 4.76184 1.47637 4.76184 2.80613 4.76184H5.32133C5.66486 4.76184 5.83662 4.76184 5.96674 4.66929C6.09686 4.57674 6.15323 4.41449 6.26595 4.08998L7.08947 1.71931Z" fill="#FFB800"/>
</svg>
