<svg width="20" height="21" viewBox="0 0 20 21" fill="none" xmlns="http://www.w3.org/2000/svg">
<g clip-path="url(#clip0_2971_552)">
<path d="M20 4.01007C19.2563 4.33465 18.4637 4.54979 17.6375 4.65425C18.4875 4.14935 19.1363 3.35595 19.4412 2.39963C18.6488 2.8697 17.7738 3.20174 16.8412 3.38704C16.0887 2.5899 15.0162 2.09619 13.8462 2.09619C11.5763 2.09619 9.74875 3.92924 9.74875 6.1764C9.74875 6.49973 9.77625 6.81063 9.84375 7.10661C6.435 6.94121 3.41875 5.31584 1.3925 2.83986C1.03875 3.45046 0.83125 4.14935 0.83125 4.90172C0.83125 6.31444 1.5625 7.56673 2.6525 8.29174C1.99375 8.27931 1.3475 8.08904 0.8 7.78934C0.8 7.80177 0.8 7.81794 0.8 7.8341C0.8 9.81638 2.22125 11.4629 4.085 11.8422C3.75125 11.933 3.3875 11.9765 3.01 11.9765C2.7475 11.9765 2.4825 11.9616 2.23375 11.9069C2.765 13.5223 4.2725 14.7099 6.065 14.7485C4.67 15.8341 2.89875 16.4882 0.98125 16.4882C0.645 16.4882 0.3225 16.4733 0 16.4323C1.81625 17.5975 3.96875 18.2628 6.29 18.2628C13.835 18.2628 17.96 12.0449 17.96 6.65518C17.96 6.47486 17.9538 6.30076 17.945 6.1279C18.7588 5.55336 19.4425 4.83581 20 4.01007Z" fill="white"/>
</g>
<defs>
<clipPath id="clip0_2971_552">
<rect width="20" height="19.8974" fill="white" transform="translate(0 0.230957)"/>
</clipPath>
</defs>
</svg>
