<svg width="18" height="15" viewBox="0 0 18 15" fill="none" xmlns="http://www.w3.org/2000/svg">
<path d="M17.6291 2.39476C17.4217 1.54254 16.8137 0.870739 16.0427 0.641261C14.6341 0.215332 8.9998 0.215332 8.9998 0.215332C8.9998 0.215332 3.36567 0.215332 1.95711 0.625113C1.20092 0.854347 0.578102 1.54266 0.370679 2.39476C0 3.95132 0 7.17942 0 7.17942C0 7.17942 0 10.4238 0.370679 11.9641C0.578321 12.8162 1.18609 13.488 1.95722 13.7175C3.3805 14.1435 9.00002 14.1435 9.00002 14.1435C9.00002 14.1435 14.6341 14.1435 16.0427 13.7337C16.8138 13.5044 17.4217 12.8326 17.6294 11.9805C17.9999 10.4238 17.9999 7.19581 17.9999 7.19581C17.9999 7.19581 18.0148 3.95132 17.6291 2.39476ZM7.20595 10.1617V4.19719L11.8912 7.17942L7.20595 10.1617Z" fill="white"/>
</svg>
