<svg width="96" height="158" viewBox="0 0 96 158" fill="none" xmlns="http://www.w3.org/2000/svg">
<g opacity="0.5">
<path d="M-73.4013 89.1315C-65.8856 75.9811 -43.1182 49.443 -12.1739 48.4934C26.5064 47.3064 58.5145 9.1406 60.2319 0.999958" stroke="#FF0000"/>
<path d="M-71.452 98.8635C-63.9364 85.7132 -41.169 59.1751 -10.2247 58.2255C28.4556 57.0384 60.4637 18.8727 62.1812 10.732" stroke="#FF0000"/>
<path d="M-69.4843 108.605C-61.9686 95.4544 -39.2012 68.9163 -8.25693 67.9667C30.4234 66.7797 62.4315 28.6139 64.1489 20.4732" stroke="#FF0000"/>
<path d="M-67.5175 118.346C-60.0018 105.195 -37.2344 78.6572 -6.29013 77.7075C32.3902 76.5205 64.3983 38.3547 66.1157 30.2141" stroke="#FF0000"/>
<path d="M-65.5487 128.087C-58.033 114.936 -35.2656 88.3982 -4.32138 87.4486C34.3589 86.2616 66.3671 48.0958 68.0845 39.9552" stroke="#FF0000"/>
<path d="M-63.5809 137.828C-56.0653 124.678 -33.2979 98.1395 -2.35361 97.1898C36.3267 96.0028 68.3348 57.837 70.0523 49.6964" stroke="#FF0000"/>
<path d="M-61.6132 147.569C-54.0975 134.419 -31.3301 107.881 -0.385836 106.931C38.2945 105.744 70.3026 67.5781 72.02 59.4375" stroke="#FF0000"/>
<path d="M-59.6454 157.31C-52.1297 144.16 -29.3623 117.622 1.58194 116.672C40.2623 115.485 72.2704 77.3192 73.9878 69.1785" stroke="#FF0000"/>
</g>
</svg>
